<?xml version="1.0" encoding="UTF-8" standalone="no"?>
<!-- Created with Inkscape (http://www.inkscape.org/) -->

<svg
   xmlns:osb="http://www.openswatchbook.org/uri/2009/osb"
   xmlns:dc="http://purl.org/dc/elements/1.1/"
   xmlns:cc="http://creativecommons.org/ns#"
   xmlns:rdf="http://www.w3.org/1999/02/22-rdf-syntax-ns#"
   xmlns:svg="http://www.w3.org/2000/svg"
   xmlns="http://www.w3.org/2000/svg"
   xmlns:xlink="http://www.w3.org/1999/xlink"
   xmlns:sodipodi="http://sodipodi.sourceforge.net/DTD/sodipodi-0.dtd"
   xmlns:inkscape="http://www.inkscape.org/namespaces/inkscape"
   width="48"
   height="48"
   id="svg5417"
   version="1.1"
   inkscape:version="0.48.4 r9939"
   sodipodi:docname="babymonitor-mdpi.svg">
  <defs
     id="defs5419">
    <linearGradient
       id="linearGradient5943">
      <stop
         style="stop-color:#646464;stop-opacity:1;"
         offset="0"
         id="stop5945" />
      <stop
         style="stop-color:#323232;stop-opacity:1;"
         offset="1"
         id="stop5947" />
    </linearGradient>
    <linearGradient
       id="linearGradient5427"
       osb:paint="gradient">
      <stop
         style="stop-color:#000000;stop-opacity:1;"
         offset="0"
         id="stop5429" />
      <stop
         style="stop-color:#000000;stop-opacity:1;"
         offset="1"
         id="stop5431" />
    </linearGradient>
    <linearGradient
       inkscape:collect="always"
       xlink:href="#linearGradient5943"
       id="linearGradient5949"
       x1="-380"
       y1="335.50504"
       x2="-336"
       y2="335.50504"
       gradientUnits="userSpaceOnUse"
       gradientTransform="translate(693.50504,22.494955)" />
    <filter
       id="filter6033"
       inkscape:label="Drop Shadow"
       color-interpolation-filters="sRGB">
      <feFlood
         id="feFlood6035"
         flood-opacity="0.5"
         flood-color="rgb(0,0,0)"
         result="flood" />
      <feComposite
         id="feComposite6037"
         in2="SourceGraphic"
         in="flood"
         operator="in"
         result="composite1" />
      <feGaussianBlur
         id="feGaussianBlur6039"
         stdDeviation="1"
         result="blur" />
      <feOffset
         id="feOffset6041"
         dx="1"
         dy="0"
         result="offset" />
      <feComposite
         id="feComposite6043"
         in2="offset"
         in="SourceGraphic"
         operator="over"
         result="composite2" />
    </filter>
    <clipPath
       clipPathUnits="userSpaceOnUse"
       id="clipPath6102">
      <rect
         style="fill:#ffffff;fill-opacity:1;fill-rule:nonzero;stroke:none"
         id="rect6104"
         width="48"
         height="48"
         x="-382"
         y="311.50504" />
    </clipPath>
  </defs>
  <sodipodi:namedview
     id="base"
     pagecolor="#ffffff"
     bordercolor="#666666"
     borderopacity="1.0"
     inkscape:pageopacity="0.0"
     inkscape:pageshadow="2"
     inkscape:zoom="5.6"
     inkscape:cx="3.6535323"
     inkscape:cy="27.139786"
     inkscape:document-units="px"
     inkscape:current-layer="g6096"
     showgrid="false"
     inkscape:window-width="1366"
     inkscape:window-height="716"
     inkscape:window-x="-8"
     inkscape:window-y="-8"
     inkscape:window-maximized="1"
     fit-margin-top="0"
     fit-margin-left="0"
     fit-margin-right="0"
     fit-margin-bottom="0" />
  <metadata
     id="metadata5422">
    <rdf:RDF>
      <cc:Work
         rdf:about="">
        <dc:format>image/svg+xml</dc:format>
        <dc:type
           rdf:resource="http://purl.org/dc/dcmitype/StillImage" />
        <dc:title />
      </cc:Work>
    </rdf:RDF>
  </metadata>
  <g
     inkscape:label="Calque 1"
     inkscape:groupmode="layer"
     id="layer1"
     transform="translate(413.33929,-308.97647)">
    <g
       id="g6096"
       transform="translate(-31.339291,-2.5285695)"
       clip-path="url(#clipPath6102)">
      <rect
         transform="matrix(0,1,-1,0,0,0)"
         ry="7.1875"
         rx="7.1875"
         y="335"
         x="312.50504"
         height="46"
         width="46"
         id="rect5425"
         style="fill:#9ecd68;fill-opacity:1;fill-rule:nonzero;stroke:none" />
      <path
         d="m -358.46116,316.13553 c -4.40684,0.15375 -8.09627,1.61415 -11.0683,4.38119 -2.71585,2.51089 -4.25309,5.45732 -4.61179,8.83926 -1.28105,0.56368 -2.22904,1.39638 -2.84394,2.49806 -0.6149,1.10173 -0.81986,2.21625 -0.6149,3.34354 0.15373,1.1786 0.65333,2.20342 1.49884,3.07453 0.84548,0.87112 1.90875,1.48603 3.18982,1.84471 0.5124,2.04969 1.38352,3.86879 2.61333,5.45729 1.3323,1.74224 2.84394,2.99767 4.53493,3.7663 0.0512,-0.9736 0.28183,-1.87033 0.69178,-2.69023 -1.12736,-0.66613 -2.12656,-1.56287 -2.99768,-2.6902 -1.33229,-1.69098 -2.15217,-3.43321 -2.45962,-5.2267 l -0.23058,-1.07608 c -0.46118,2e-5 -0.79425,2e-5 -0.99923,0 -0.92235,-0.10235 -1.65255,-0.42273 -2.19059,-0.96078 -0.53805,-0.53803 -0.85831,-1.16575 -0.96078,-1.88315 -0.25622,-1.63973 0.51241,-2.74143 2.30588,-3.30512 l 0.99923,-0.15372 c 0,-0.5124 0,-0.87109 0,-1.07609 0.15372,-2.86953 1.46038,-5.45725 3.92,-7.76317 1.3323,-1.22978 2.97204,-2.17775 4.91926,-2.84394 -0.15374,1.896 0.30743,3.58699 1.38353,5.07297 0.87111,1.17859 2.06247,1.88317 3.57414,2.11373 1.51163,0.23062 3.21541,-0.14089 5.11138,-1.11452 0.30745,-0.20493 0.43556,-0.43552 0.38433,-0.69177 -0.0512,-0.25617 -0.28187,-0.38427 -0.69177,-0.3843 -0.87113,3e-5 -1.58853,-0.23057 -2.15217,-0.69177 -0.56368,-0.46115 -0.92237,-1.02482 -1.07608,-1.69099 -0.3587,-1.43475 0.17933,-2.45958 1.61413,-3.07453 2.51084,0.61495 4.61176,1.71665 6.30278,3.30512 2.45956,2.30592 3.76626,4.89364 3.92,7.76317 l 0,1.07609 c 0.46115,0.0512 0.79423,0.10245 0.99924,0.15372 1.79344,0.56369 2.56207,1.66539 2.30589,3.30512 -0.10245,0.7174 -0.4228,1.34512 -0.96079,1.88315 -0.53809,0.53805 -1.26827,0.85832 -2.19061,0.96078 l -1.07608,0 c -0.0512,0.51243 -0.10246,0.87114 -0.15372,1.07608 -0.30748,1.79349 -1.12736,3.53572 -2.45962,5.2267 -0.87114,1.12733 -1.87036,2.02407 -2.99767,2.6902 0.46116,0.87113 0.69174,1.76787 0.69178,2.69023 1.69095,-0.76863 3.20259,-2.02406 4.53492,-3.7663 1.22977,-1.5885 2.10089,-3.4076 2.61334,-5.45729 1.28102,-0.35868 2.34429,-0.97359 3.18983,-1.84471 0.84545,-0.87111 1.34505,-1.89593 1.49882,-3.07453 0.20494,-1.12729 -3e-5,-2.24181 -0.6149,-3.34354 -0.61495,-1.10168 -1.56292,-1.93438 -2.84393,-2.49806 -0.35873,-3.38194 -1.89599,-6.32837 -4.6118,-8.83926 -2.97207,-2.76704 -6.66149,-4.22744 -11.06829,-4.38119 -0.0512,3e-5 -0.12811,3e-5 -0.23058,0 -0.10246,3e-5 -0.17936,3e-5 -0.23059,0 -0.0512,3e-5 -0.12813,3e-5 -0.2306,0 -0.10245,3e-5 -0.17935,3e-5 -0.23057,0 z m -3.11298,16.564 c -0.38433,-0.38429 -0.8455,-0.57644 -1.38353,-0.57647 -0.53805,3e-5 -0.99923,0.19218 -1.38353,0.57647 -0.38431,0.38434 -0.57649,0.84551 -0.57647,1.38354 -2e-5,0.53805 0.19216,0.99924 0.57647,1.38354 0.3843,0.38432 0.84548,0.57647 1.38353,0.57646 0.53803,10e-6 0.9992,-0.19214 1.38353,-0.57646 0.3843,-0.3843 0.57648,-0.84549 0.57649,-1.38354 -10e-6,-0.53803 -0.19219,-0.9992 -0.57649,-1.38354 z m 9.99222,0 c -0.38433,-0.38429 -0.85834,-0.57644 -1.42197,-0.57647 -0.56369,3e-5 -1.03767,0.19218 -1.42196,0.57647 -0.38434,0.38434 -0.57651,0.84551 -0.57649,1.38354 -2e-5,0.53805 0.19215,0.99924 0.57649,1.38354 0.38429,0.38432 0.85827,0.57647 1.42196,0.57646 0.56363,10e-6 1.03764,-0.19214 1.42197,-0.57646 0.38429,-0.3843 0.57644,-0.84549 0.57647,-1.38354 -3e-5,-0.53803 -0.19218,-0.9992 -0.57647,-1.38354 z m -2.22904,8.41652 c -1.15297,-0.71738 -2.54931,-1.07608 -4.18903,-1.07609 -1.63976,10e-6 -3.0361,0.35871 -4.18904,1.07609 -1.15297,0.7174 -1.72943,1.56288 -1.72942,2.53648 -10e-6,0.87111 0.43553,1.63975 1.30667,2.3059 -0.87114,0.97359 -1.30668,2.12655 -1.30667,3.45884 -10e-6,1.53726 0.57645,2.83111 1.72942,3.88157 1.15294,1.05048 2.54928,1.5757 4.18904,1.5757 1.63972,0 3.03606,-0.52522 4.18903,-1.5757 1.15293,-1.05046 1.72941,-2.34431 1.72942,-3.88157 -10e-6,-1.28106 -0.43557,-2.43399 -1.30667,-3.45884 0.8711,-0.66615 1.30666,-1.43479 1.30667,-2.3059 -10e-6,-0.9736 -0.57649,-1.81908 -1.72942,-2.53648 z m -6.14904,5.64943 c 0.53803,-0.48679 1.19136,-0.73019 1.96001,-0.73019 0.76861,0 1.42195,0.2434 1.96,0.73019 0.53803,0.48681 0.80705,1.06328 0.80707,1.72942 -2e-5,0.66615 -0.26904,1.22983 -0.80707,1.691 -0.53805,0.46117 -1.19139,0.69175 -1.96,0.69175 -0.76865,0 -1.42198,-0.23058 -1.96001,-0.69175 -0.53806,-0.46117 -0.80708,-1.02485 -0.80706,-1.691 -2e-5,-0.66614 0.269,-1.24261 0.80706,-1.72942 z"
         style="font-size:40px;font-style:normal;font-variant:normal;font-weight:normal;font-stretch:normal;line-height:125%;letter-spacing:0px;word-spacing:0px;fill:#000000;fill-opacity:1;stroke:none;font-family:icomoon;-inkscape-font-specification:icomoon"
         id="path3864"
         inkscape:connector-curvature="0" />
    </g>
  </g>
</svg>
